<svg width="25" height="25" viewBox="0 0 25 25" fill="none" xmlns="http://www.w3.org/2000/svg">
<path d="M12.5 0C5.60753 0 0 5.60753 0 12.5C0 19.392 5.60753 25 12.5 25C19.392 25 25 19.392 25 12.5C25 5.60753 19.393 0 12.5 0ZM15.6086 12.9401H13.575C13.575 16.1892 13.575 20.1885 13.575 20.1885H10.5615C10.5615 20.1885 10.5615 16.2279 10.5615 12.9401H9.12904V10.3782H10.5615V8.7212C10.5615 7.53444 11.1254 5.68003 13.6027 5.68003L15.8357 5.68859V8.1754C15.8357 8.1754 14.4788 8.1754 14.2149 8.1754C13.9511 8.1754 13.576 8.30732 13.576 8.87326V10.3787H15.872L15.6086 12.9401Z" fill="#BABABA"/>
</svg>
