<svg width="25" height="25" viewBox="0 0 25 25" fill="none" xmlns="http://www.w3.org/2000/svg">
<path fill-rule="evenodd" clip-rule="evenodd" d="M12.575 24.85C19.4372 24.85 25 19.2871 25 12.425C25 5.56286 19.4372 0 12.575 0C5.71289 0 0.150024 5.56286 0.150024 12.425C0.150024 19.2871 5.71289 24.85 12.575 24.85ZM9.39363 5.1069H15.7563C17.9171 5.1069 19.6751 6.83376 19.675 8.95624V15.2063C19.675 17.3288 17.9171 19.0556 15.7563 19.0556H9.39363C7.23292 19.0556 5.47504 17.3288 5.47504 15.2063V8.95624C5.47504 6.83376 7.23292 5.1069 9.39363 5.1069ZM15.7563 17.818C17.2224 17.818 18.4152 16.6464 18.4152 15.2063H18.4151V8.95624C18.4151 7.51617 17.2223 6.3445 15.7563 6.3445H9.39363C7.92762 6.3445 6.73493 7.51617 6.73493 8.95624V15.2063C6.73493 16.6464 7.92762 17.8181 9.39363 17.818H15.7563ZM12.575 8.59412C10.6175 8.59412 9.02502 10.1585 9.02502 12.0814C9.02502 14.0042 10.6175 15.5685 12.575 15.5685C14.5325 15.5685 16.125 14.0042 16.125 12.0814C16.125 10.1585 14.5325 8.59412 12.575 8.59412ZM12.575 14.3676C11.2916 14.3676 10.2474 13.342 10.2474 12.0813C10.2474 10.8205 11.2915 9.79481 12.575 9.79481C13.8585 9.79481 14.9027 10.8205 14.9027 12.0813C14.9027 13.342 13.8584 14.3676 12.575 14.3676ZM15.4981 7.97753C15.6628 7.81506 15.8918 7.72233 16.125 7.72233C16.359 7.72233 16.5881 7.81506 16.7527 7.97753C16.9181 8.13921 17.0125 8.36429 17.0125 8.59412C17.0125 8.82317 16.9181 9.04825 16.7527 9.21072C16.5873 9.3724 16.359 9.46592 16.125 9.46592C15.8918 9.46592 15.6627 9.3724 15.4981 9.21072C15.3327 9.04825 15.2375 8.82325 15.2375 8.59412C15.2375 8.36429 15.3326 8.13921 15.4981 7.97753Z" fill="#BABABA"/>
</svg>
