<svg width="132" height="35" viewBox="0 0 132 35" fill="none" xmlns="http://www.w3.org/2000/svg">
<path d="M7.67275 14C5.47282 14 3.64405 13.3462 2.18643 12.0385C0.72881 10.7051 0 9.02564 0 7C0 4.94872 0.722062 3.26923 2.16619 1.96154C3.6238 0.653846 5.45933 0 7.67275 0C9.04939 0 10.2978 0.282051 11.418 0.846154V3.63461C10.3248 2.94231 9.08313 2.59615 7.69299 2.59615C6.35684 2.59615 5.22989 3.01282 4.31213 3.84615C3.42136 4.66667 2.97597 5.71795 2.97597 7C2.97597 8.28205 3.43485 9.33974 4.35261 10.1731C5.25688 10.9936 6.41083 11.4038 7.81446 11.4038C9.36656 11.4038 10.6622 11.0128 11.7014 10.2308V13.0192C10.5542 13.6731 9.21135 14 7.67275 14Z" fill="white"/>
<path d="M18.8429 13.7308H15.786L21.8594 0.192307H24.6532L30.7266 13.7308H27.6291L26.2323 10.6154H20.2398L18.8429 13.7308ZM23.236 3.65385L21.1508 8.32692H25.301L23.236 3.65385Z" fill="white"/>
<path d="M38.3494 13.7308H35.4341V0.269231H38.3291L42.4388 5.84615L46.5485 0.269231H49.4232V13.7308H46.5485V4.51923L43.2891 8.84615H41.6695L38.3494 4.51923V13.7308Z" fill="white"/>
<path d="M58.3856 13.7308H55.4906V0.269231H58.3856V13.7308Z" fill="white"/>
<path d="M74.5336 13.7308H64.4315V0.269231H67.3467V11.25H74.5336V13.7308Z" fill="white"/>
<path d="M89.5661 13.7308H79.464V0.269231H82.3792V11.25H89.5661V13.7308Z" fill="white"/>
<path d="M105.125 13.7308H94.4965V0.269231H104.902V2.75H97.4117V5.34615H103.445V7.78846H97.4117V11.25H105.125V13.7308Z" fill="white"/>
<path d="M120.116 13.7308H117.059L123.133 0.192307H125.927L132 13.7308H128.903L127.506 10.6154H121.513L120.116 13.7308ZM124.509 3.65385L122.424 8.32692H126.574L124.509 3.65385Z" fill="white"/>
<path d="M50.7415 34.884H50V28.116H52.9459C53.6406 28.116 54.1883 28.2868 54.5891 28.6285C54.9899 28.9701 55.1903 29.4245 55.1903 29.9917C55.1903 30.5718 54.9899 31.0359 54.5891 31.384C54.1883 31.7256 53.6406 31.8964 52.9459 31.8964H50.7415V34.884ZM50.7415 28.7638V31.2486H52.8958C53.3901 31.2486 53.7742 31.1423 54.0481 30.9296C54.3219 30.7104 54.4589 30.4042 54.4589 30.011C54.4589 29.6114 54.3219 29.3052 54.0481 29.0925C53.7809 28.8734 53.3968 28.7638 52.8958 28.7638H50.7415Z" fill="white"/>
<path d="M57.4421 34.884H56.6705L59.7968 28.0773H60.4881L63.6244 34.884H62.8428L61.9711 33.018H58.2938L57.4421 34.884ZM60.1374 28.9765L58.5443 32.3895H61.7306L60.1374 28.9765Z" fill="white"/>
<path d="M67.0505 34.884H66.309V28.116H69.4453C70.1266 28.116 70.6643 28.2836 71.0585 28.6188C71.4593 28.9475 71.6597 29.3923 71.6597 29.953C71.6597 30.4365 71.5127 30.8393 71.2188 31.1616C70.9315 31.4839 70.5274 31.6869 70.0064 31.7707L72.2709 34.884H71.3991L69.1948 31.8384H67.0505V34.884ZM67.0505 28.7638V31.1906H69.4052C69.8861 31.1906 70.2569 31.0875 70.5174 30.8812C70.7846 30.6685 70.9182 30.3688 70.9182 29.982C70.9182 29.5953 70.7846 29.2956 70.5174 29.0829C70.2502 28.8702 69.8795 28.7638 69.4052 28.7638H67.0505Z" fill="white"/>
<path d="M75.8813 34.884H75.1399V28.116H75.8813V34.884Z" fill="white"/>
<path d="M81.3948 35C80.8871 35 80.3995 34.9355 79.9319 34.8066C79.471 34.6713 79.0936 34.4972 78.7996 34.2845V33.482C79.0802 33.7141 79.4443 33.9139 79.8918 34.0815C80.3728 34.2491 80.8571 34.3329 81.3447 34.3329C81.8992 34.3329 82.3534 34.2169 82.7074 33.9848C83.0615 33.7528 83.2385 33.4434 83.2385 33.0566C83.2786 32.6957 83.0848 32.3895 82.6573 32.1381C82.5705 32.0737 82.4302 32.0092 82.2365 31.9448L81.7956 31.7997C81.7756 31.7933 81.7355 31.7836 81.6754 31.7707C81.6153 31.7514 81.5485 31.732 81.475 31.7127C81.4082 31.6869 81.338 31.6644 81.2646 31.645C80.8504 31.529 80.6032 31.4581 80.5231 31.4323C80.3093 31.3614 80.1022 31.2808 79.9018 31.1906C79.6814 31.0875 79.5077 30.9747 79.3808 30.8522C79.0869 30.5557 78.9399 30.1883 78.9399 29.75C78.9399 29.2408 79.1537 28.8218 79.5812 28.4931C80.0087 28.1644 80.6032 28 81.3648 28C82.2064 28 82.9345 28.1869 83.5491 28.5608V29.2956C82.8544 28.8766 82.1329 28.6671 81.3848 28.6671C80.8437 28.6671 80.4262 28.7703 80.1323 28.9765C79.8384 29.1828 79.6914 29.4471 79.6914 29.7693C79.6513 30.0272 79.8016 30.2818 80.1423 30.5331C80.1958 30.5783 80.306 30.6298 80.473 30.6878L80.8137 30.8135L81.2445 30.9296L81.6654 31.0456C82.0327 31.1552 82.2632 31.2261 82.3567 31.2583C82.5504 31.3227 82.7542 31.4098 82.9679 31.5193C83.1884 31.6289 83.3687 31.7514 83.509 31.8867C83.8363 32.1768 84 32.5635 84 33.047C84 33.6529 83.7462 34.1298 83.2385 34.4779C82.7375 34.826 82.1229 35 81.3948 35Z" fill="white"/>
</svg>
