<svg width="1707" height="182" viewBox="0 0 1707 182" fill="none" xmlns="http://www.w3.org/2000/svg">
<path d="M99.2226 181.851C70.7736 181.851 47.1242 173.398 28.2745 156.491C9.42484 139.253 0 117.54 0 91.3511C0 64.8309 9.33757 43.1176 28.0127 26.211C46.8624 9.30437 70.599 0.851074 99.2226 0.851074C117.025 0.851074 133.169 4.4976 147.656 11.7906V47.8415C133.519 38.8909 117.461 34.4156 99.4844 34.4156C82.2055 34.4156 67.6319 39.8025 55.7636 50.5764C44.2444 61.1844 38.4848 74.776 38.4848 91.3511C38.4848 107.926 44.4189 121.601 56.2872 132.374C67.981 142.982 82.9037 148.287 101.055 148.287C121.127 148.287 137.882 143.231 151.321 133.12V169.171C136.486 177.624 119.119 181.851 99.2226 181.851Z" fill="#F8F8F8"/>
<path d="M243.673 178.37H204.141L282.682 3.33734H318.81L397.351 178.37H357.295L339.231 138.093H261.738L243.673 178.37ZM300.484 48.0901L273.519 108.506H327.188L300.484 48.0901Z" fill="#F8F8F8"/>
<path d="M495.927 178.37H458.228V4.33184H495.665L548.811 76.4335L601.956 4.33184H639.132V178.37H601.956V59.2783L559.806 115.219H538.862L495.927 59.2783V178.37Z" fill="#F8F8F8"/>
<path d="M755.032 178.37H717.595V4.33184H755.032V178.37Z" fill="#F8F8F8"/>
<path d="M963.855 178.37H833.217V4.33184H870.916V146.298H963.855V178.37Z" fill="#F8F8F8"/>
<path d="M1158.25 178.37H1027.61V4.33184H1065.31V146.298H1158.25V178.37Z" fill="#F8F8F8"/>
<path d="M1359.46 178.37H1222.01V4.33184H1356.58V36.4046H1259.71V69.9692H1337.73V101.545H1259.71V146.298H1359.46V178.37Z" fill="#F8F8F8"/>
<path d="M1553.32 178.37H1513.79L1592.33 3.33734H1628.46L1707 178.37H1666.94L1648.88 138.093H1571.39L1553.32 178.37ZM1610.13 48.0901L1583.17 108.506H1636.84L1610.13 48.0901Z" fill="#F8F8F8"/>
</svg>
