<svg width="596" height="595" viewBox="0 0 596 595" fill="none" xmlns="http://www.w3.org/2000/svg">
<path d="M508.455 353.931C508.107 354.267 507.835 350.495 508.532 349.824C508.881 349.488 509.216 349.837 509.54 350.87C510.199 352.252 510.199 352.252 511.245 351.244C511.942 350.573 512.303 349.552 511.98 348.519C512.006 347.15 512.354 346.814 512.69 347.163C513.026 347.511 513.375 347.176 513.388 346.491C513.749 345.471 516.215 341.751 516.899 341.763C516.899 341.763 516.887 342.448 516.525 343.468C516.164 344.489 516.151 345.173 516.151 345.173C516.836 345.186 518.928 343.171 519.974 342.164C520.322 341.828 521.02 341.156 521.02 341.156C521.02 341.156 521.381 340.136 521.394 339.451C521.419 338.082 521.768 337.746 522.104 338.095C522.44 338.444 523.124 338.457 523.473 338.121C523.822 337.785 524.519 337.113 524.855 337.462C525.539 337.475 525.888 337.139 526.636 333.729C527.758 328.614 529.166 326.586 531.555 326.973C532.576 327.335 533.609 327.012 534.307 326.34C534.655 326.004 534.319 325.656 532.95 325.63C531.917 325.953 530.896 325.591 530.909 324.907C530.586 323.873 534.098 319.145 534.782 319.158C535.467 319.171 535.816 318.835 535.48 318.487C535.492 317.802 535.841 317.466 536.177 317.815C536.861 317.828 537.223 316.807 537.92 316.136C538.63 314.779 539.663 314.457 541.381 314.147C542.75 314.172 544.132 313.513 544.83 312.842C545.527 312.17 545.863 312.519 546.199 312.868C546.535 313.216 548.24 313.591 549.945 313.965L553.368 314.03L553.419 311.291C553.457 309.238 553.806 308.902 554.49 308.915C554.826 309.263 555.859 308.94 556.905 307.933C558.3 306.59 558.3 306.59 557.641 305.208C557.317 304.174 556.981 303.825 557.666 303.838C558.351 303.851 558.699 303.515 559.384 303.528C560.417 303.205 560.417 303.205 559.72 303.877C558.674 304.885 558.997 305.918 560.03 305.595C561.412 304.936 561.114 302.534 560.43 302.521C559.745 302.508 559.745 302.508 560.443 301.836C560.791 301.5 562.173 300.842 562.858 300.854C563.891 300.531 564.601 299.175 565.311 297.819C566.731 295.106 570.205 292.432 570.179 293.802C570.154 295.171 572.556 294.874 573.615 293.181C574.674 291.489 574.686 290.805 573.989 291.476C573.64 291.812 573.304 291.464 572.968 291.115C572.981 290.43 573.33 290.094 573.666 290.443C574.35 290.456 574.376 289.087 573.406 285.987C572.113 281.853 571.454 280.471 571.182 276.7C570.871 274.982 570.212 273.6 569.527 273.587C568.843 273.574 568.52 272.541 568.545 271.171C568.571 269.802 568.26 268.084 567.924 267.736C567.588 267.387 566.942 265.32 566.631 263.602C566.01 260.167 564.071 253.967 563.386 253.954C562.702 253.941 562.429 250.169 563.165 247.444C563.552 245.054 563.564 244.369 562.208 243.659C561.536 242.962 560.851 242.949 560.839 243.633C560.826 244.318 560.49 243.969 559.831 242.587C558.848 240.172 555.8 238.402 553.061 238.351C547.585 238.247 545.531 238.209 545.208 237.176C544.536 236.478 544.884 236.142 545.582 235.471C545.93 235.135 546.279 234.799 545.594 234.786C544.91 234.773 544.574 234.424 544.923 234.088C545.309 231.699 544.973 231.35 544.276 232.022C543.23 233.029 542.571 231.647 543.617 230.64C544.314 229.968 543.332 227.553 542.647 227.54C541.963 227.527 542.312 227.191 542.673 226.171C543.034 225.15 543.383 224.814 542.35 225.137C541.665 225.124 541.329 224.776 541.678 224.44C542.039 223.419 541.031 222.373 540.347 222.36C540.347 222.36 540.011 222.012 540.359 221.676C541.082 219.635 540.436 217.568 539.402 217.891C539.054 218.227 538.033 217.865 538.046 217.181C538.059 216.496 538.407 216.16 538.407 216.16C539.777 216.186 534.338 214.029 531.6 213.978C527.841 213.564 522.687 214.495 520.944 216.174C520.247 216.846 519.214 217.168 518.878 216.82C518.206 216.122 506.117 221.716 502.644 224.39C502.295 224.725 501.262 225.048 500.577 225.035C499.893 225.023 498.859 225.346 497.478 226.004C496.096 226.663 494.714 227.322 493.345 227.296C492.311 227.619 489.212 228.588 486.784 230.254C484.02 231.572 481.256 232.89 479.874 233.548C478.492 234.207 476.762 235.202 476.401 236.222C476.039 237.243 475.355 237.23 475.019 236.881C474.347 236.184 464.674 240.795 464.312 241.816C464.299 242.5 463.951 242.836 463.615 242.487C463.279 242.139 462.582 242.81 461.897 242.797C461.2 243.469 460.528 242.772 460.205 241.738C459.546 240.356 459.21 240.007 458.164 241.015C455.736 242.681 455.051 242.668 454.741 240.951C454.418 239.917 454.082 239.568 453.397 239.556C452.015 240.214 449.753 232.981 450.165 229.222C450.165 229.222 449.518 227.156 448.872 225.089C448.238 222.338 447.566 221.64 446.882 221.627C446.533 221.963 446.197 221.615 446.197 221.615C446.546 221.279 446.235 219.561 445.576 218.179C445.266 216.461 444.955 214.743 444.968 214.058C445.342 212.353 441.698 205.779 440.341 205.068C439.321 204.707 438.313 203.661 437.99 202.627C435.328 198.468 425.756 197.603 418.847 200.897C416.432 201.879 413.668 203.196 412.97 203.868C412.273 204.54 411.24 204.863 410.891 205.199C410.207 205.186 409.509 205.857 409.161 206.193C408.812 206.529 406.733 207.86 404.654 209.19C402.575 210.521 400.147 212.187 399.798 212.523C399.101 213.195 398.752 213.53 398.068 213.517C397.383 213.505 396.686 214.176 396.337 214.512C394.594 216.191 391.855 216.14 392.229 214.435C392.268 212.381 391.957 210.663 390.575 211.322C390.227 211.658 389.891 211.309 390.239 210.973C391.647 208.945 386.722 197.553 384.992 198.547C384.643 198.883 384.307 198.535 384.656 198.199C385.353 197.527 384.757 192.722 384.073 192.709C383.737 192.36 383.414 191.327 383.103 189.609C382.495 185.489 381.177 182.725 379.833 181.33C379.161 180.632 377.817 179.237 377.494 178.204C377.171 177.171 376.163 176.124 375.478 176.111C374.794 176.099 373.786 175.052 373.45 174.704C372.442 173.657 368.373 171.526 367.352 171.165C367.352 171.165 366.319 171.488 365.286 171.811C364.253 172.134 363.207 173.141 362.522 173.128C362.173 173.464 359.41 174.782 356.982 176.448C354.218 177.766 352.475 179.445 352.126 179.781C352.113 180.465 351.777 180.117 351.777 180.117C351.442 179.768 345.565 182.739 343.138 184.405C342.789 184.741 341.756 185.064 341.407 185.4C340.722 185.387 340.374 185.723 340.361 186.407C340.348 187.092 340 187.428 339.315 187.415C338.979 187.066 332.057 191.045 326.866 194.029C325.82 195.036 323.404 196.018 322.023 196.677C320.641 197.336 318.561 198.666 317.18 199.325C315.798 199.984 312.673 202.322 310.245 203.988C307.817 205.655 305.389 207.321 305.04 207.657C304.692 207.993 304.343 208.328 303.658 208.315C303.658 208.315 301.243 209.297 299.849 210.641C294.296 214.645 294.645 214.309 292.357 208.445C291.387 205.345 289.397 201.883 288.402 200.153C286.747 197.04 285.765 194.624 285.131 191.873C284.808 190.84 284.149 189.458 283.464 189.445C282.78 189.432 281.449 187.353 280.79 185.97C279.807 183.555 279.135 182.858 276.746 182.47C275.041 182.096 273.684 181.385 273.697 180.701C273.361 180.352 273.025 180.003 273.025 180.003C273.025 180.003 272.34 179.99 272.004 179.642C271.333 178.944 269.951 179.603 266.154 181.243C263.726 182.91 260.962 184.227 260.265 184.899C259.916 185.235 258.186 186.23 256.804 186.888C255.422 187.547 254.027 188.891 253.33 189.562C252.633 190.234 252.284 190.57 251.948 190.221C251.612 189.872 250.23 190.531 248.836 191.875C247.105 192.869 246.059 193.877 245.723 193.528C245.723 193.528 243.993 194.523 242.262 195.517C239.137 197.855 234.643 200.168 232.215 201.834C231.182 202.157 230.484 202.829 230.472 203.513C230.459 204.198 230.459 204.198 229.774 204.185C229.774 204.185 227.359 205.167 225.616 206.846C223.537 208.176 219.378 210.837 216.951 212.504C214.523 214.17 210.713 216.495 208.634 217.826C203.081 221.83 203.081 221.83 201.826 215.643C200.856 212.543 199.912 208.074 199.963 205.336C199.329 202.584 199.044 199.497 198.385 198.115C197.726 196.733 197.751 195.364 197.764 194.679C197.777 193.995 197.105 193.297 196.097 192.251C195.077 191.889 193.061 189.797 191.73 187.718C189.055 184.243 187.014 183.52 182.235 182.745C181.214 182.383 180.194 182.022 179.858 181.673C179.522 181.324 179.522 181.324 179.173 181.66C179.161 182.345 178.476 182.332 177.12 181.621C176.099 181.26 175.078 180.898 174.73 181.234C174.032 181.906 171.281 182.539 168.892 182.151C168.207 182.138 167.174 182.461 166.825 182.797C166.477 183.133 165.444 183.456 164.759 183.443C163.39 183.417 163.041 183.753 162.692 184.089C162.68 184.774 161.995 184.761 160.962 185.084C160.277 185.071 159.244 185.394 158.895 185.73C158.547 186.065 157.849 186.737 157.514 186.388C156.829 186.375 154.762 187.021 152.696 187.667C150.63 188.313 148.214 189.295 148.214 189.295C147.53 189.282 147.181 189.618 147.169 190.303C147.156 190.987 146.123 191.31 145.089 191.633C144.056 191.956 141.99 192.602 140.944 193.609C139.562 194.268 138.516 195.276 137.831 195.263C137.147 195.25 135.765 195.909 134.37 197.252C132.976 198.595 131.245 199.59 130.56 199.577C129.876 199.564 128.83 200.572 128.12 201.928C127.423 202.6 126.725 203.272 126.389 202.923C126.053 202.574 118.434 207.224 118.073 208.245C117.724 208.581 117.027 209.252 115.645 209.911C114.612 210.234 112.52 212.249 111.125 213.593C109.73 214.936 108.349 215.595 108 215.931C108 215.931 106.605 217.274 104.862 218.953C103.119 220.633 99.981 223.655 97.8891 225.67C93.3567 230.036 87.0683 236.766 86.7069 237.787C86.3582 238.123 86.0096 238.458 86.0096 238.458C85.325 238.445 79.0239 245.86 74.8019 251.944C70.58 258.028 65.6226 266.837 65.9459 267.87C65.9332 268.555 65.5845 268.891 65.2359 269.227C64.5513 269.214 64.1899 270.234 64.1771 270.919C64.1644 271.603 64.1517 272.288 63.8031 272.624C63.1058 273.296 62.3704 276.021 61.9709 279.095C61.6095 280.116 61.5967 280.8 61.2481 281.136C60.8994 281.472 60.5253 283.177 60.1513 284.882C59.7772 286.587 59.4032 288.292 59.4032 288.292C59.0545 288.628 56.7083 304.335 56.6065 309.811C56.2198 312.201 56.1562 315.624 56.1181 317.678C55.5914 327.598 55.1664 332.041 56.0598 339.249C56.0344 340.618 56.3194 343.705 56.2813 345.759C56.2177 349.182 57.4852 354.684 58.1571 355.382C58.493 355.73 58.4803 356.415 58.1189 357.435C58.1062 358.12 58.4167 359.838 59.0886 360.535C59.7604 361.233 60.4196 362.615 60.4196 362.615C60.0709 362.951 61.4274 363.661 62.0992 364.359C63.1198 364.72 63.443 365.754 63.4303 366.438C63.0816 366.774 63.0689 367.459 63.4176 367.123C63.4176 367.123 63.7408 368.156 64.4 369.538C64.7105 371.256 65.0464 371.605 65.731 371.618C66.0796 371.282 66.4156 371.631 66.7516 371.979C66.7388 372.664 66.7388 372.664 67.0874 372.328C67.4361 371.992 67.772 372.341 67.7593 373.026C67.7466 373.71 68.4311 373.723 68.7671 374.072C69.4517 374.085 71.4801 375.493 71.7906 377.21C72.1265 377.559 72.4751 377.223 73.1724 376.552C74.9156 374.872 75.6003 374.885 75.5622 376.939C75.2008 377.96 75.188 378.644 74.5034 378.631C73.8188 378.618 73.8061 379.303 73.7807 380.672C73.7299 383.41 74.0658 383.759 75.809 382.08C76.855 381.072 77.5523 380.401 77.5396 381.085C78.2115 381.783 82.0211 379.458 82.3952 377.753C82.7566 376.732 83.1052 376.396 83.7898 376.409C84.4743 376.422 85.1717 375.75 85.869 375.079C86.9149 374.071 87.5995 374.084 88.9559 374.794C90.3124 375.505 90.9971 375.518 92.7403 373.838C94.1349 372.495 95.5168 371.836 96.8859 371.862C98.2551 371.888 101.355 370.919 103.434 369.588C106.198 368.271 108.613 367.289 109.297 367.302C109.982 367.315 110.679 366.643 110.692 365.959C110.717 364.589 112.435 364.279 115.522 363.995C116.891 364.021 116.891 364.021 116.466 368.464C116.08 370.854 116.042 372.908 116.378 373.256C116.713 373.605 116.688 374.974 116.327 375.995C115.965 377.015 115.94 378.384 116.276 378.733C116.612 379.082 116.586 380.451 116.225 381.471C115.825 384.546 116.345 393.458 117.004 394.84C117.34 395.189 117.676 395.538 118.024 395.202C118.373 394.866 118.36 395.551 117.65 396.907C116.915 399.632 117.561 401.699 119.266 402.073C119.951 402.086 119.938 402.771 119.913 404.14C119.887 405.509 120.223 405.858 120.572 405.522C120.921 405.186 121.257 405.535 121.244 406.22C121.218 407.589 122.226 408.635 122.924 407.963C123.272 407.627 123.259 408.312 123.247 408.997C123.221 410.366 125.547 414.176 127.24 415.235C127.576 415.584 128.596 415.946 128.584 416.63C128.92 416.979 129.94 417.341 130.625 417.354C131.645 417.715 132.342 417.043 132.355 416.359C132.729 414.654 134.808 413.323 137.547 413.375C138.916 413.401 139.949 413.078 140.298 412.742C140.659 411.721 143.036 412.793 143.695 414.176C144.006 415.893 146.446 413.542 147.169 411.502C147.195 410.132 147.892 409.461 149.61 409.151C151.327 408.841 152.025 408.169 153.445 405.456C155.562 402.072 155.562 402.072 158.636 402.472C161.026 402.86 163.454 401.193 166.966 396.466C167.663 395.794 169.058 394.451 170.104 393.443C171.15 392.436 172.544 391.092 173.242 390.421C173.939 389.749 174.636 389.077 174.636 389.077C175.321 389.09 175.333 388.405 176.031 387.734C177.115 384.672 180.589 381.999 179.866 384.039C179.853 384.724 178.794 386.416 177.387 388.444C175.98 390.472 173.153 395.213 171.035 398.597C168.918 401.981 167.149 405.03 167.149 405.03C167.149 405.03 165.406 406.709 164.347 408.401C161.545 411.772 161.881 412.121 161.805 416.229C161.418 418.618 161.342 422.726 160.955 425.115C160.53 429.559 160.08 435.371 160.042 437.425C160.029 438.11 160.365 438.458 160.701 438.807C161.385 438.82 161.037 439.156 160.675 440.176C159.617 441.868 159.54 445.976 160.91 446.002C161.594 446.015 161.594 446.015 160.897 446.686C160.2 447.358 160.2 447.358 161.207 448.404C161.879 449.102 162.215 449.45 161.195 449.089C160.51 449.076 160.161 449.412 160.485 450.445C160.472 451.13 160.795 452.163 160.782 452.848C160.706 456.955 161.029 457.988 161.701 458.686C163.058 459.396 163.02 461.45 161.986 461.773C161.638 462.109 161.625 462.793 161.587 464.847C161.897 466.565 161.872 467.934 162.208 468.283C162.195 468.968 162.195 468.968 162.544 468.632C162.892 468.296 162.842 471.034 162.429 474.793C162.03 477.867 162.03 477.867 163.424 476.524C165.168 474.845 165.168 474.845 165.104 478.268C165.066 480.321 165.389 481.355 166.061 482.052C166.397 482.401 167.069 483.098 166.72 483.434C166.707 484.119 166.682 485.488 167.005 486.521C167.329 487.555 167.316 488.239 167.328 487.555C167.018 485.837 168.4 485.178 168.71 486.896C168.685 488.265 169.021 488.614 170.08 486.922C170.79 485.565 170.79 485.565 170.764 486.935C170.751 487.619 170.39 488.64 170.726 488.988C170.377 489.324 170.713 489.673 170.713 489.673C170.713 489.673 171.385 490.37 171.721 490.719C172.38 492.101 172.38 492.101 171.322 493.793C169.914 495.821 169.889 497.19 171.258 497.216C171.943 497.229 171.943 497.229 171.271 496.532C170.599 495.834 170.947 495.498 171.632 495.511C171.981 495.175 173.014 494.852 173.698 494.865C174.383 494.878 174.732 494.542 174.744 493.858C174.434 492.14 178.218 491.184 178.529 492.902C178.852 493.935 178.852 493.935 179.213 492.915C179.562 492.579 179.911 492.243 180.247 492.592C180.583 492.94 180.931 492.605 180.944 491.92C181.305 490.899 181.641 491.248 182.313 491.946C183.321 492.992 184.005 493.005 187.118 491.351C191.612 489.039 192.297 489.052 190.889 491.08C189.831 492.772 189.457 494.477 190.129 495.175C190.465 495.523 190.465 495.523 189.78 495.51C189.095 495.498 188.747 495.833 188.734 496.518C188.721 497.203 189.742 497.564 191.111 497.59C192.48 497.616 193.513 497.293 193.513 497.293C193.513 497.293 193.19 496.26 192.518 495.562C191.175 494.167 191.175 494.167 194.946 493.896C196.315 493.921 197.697 493.263 198.382 493.276C199.415 492.953 199.415 492.953 199.066 493.288C198.718 493.624 199.389 494.322 200.423 493.999C201.107 494.012 201.792 494.025 201.456 493.676C200.435 493.314 201.171 490.589 202.204 490.266C203.237 489.943 203.586 489.607 203.288 487.204C203.339 484.466 203.688 484.13 204.372 484.143C205.057 484.156 205.406 483.82 205.418 483.136C205.444 481.767 206.826 481.108 208.879 481.146C210.933 481.185 211.605 481.883 211.231 483.588C210.87 484.608 211.554 484.621 212.251 483.949L213.297 482.942L211.941 482.231C210.248 481.172 210.274 479.803 212.328 479.842L213.697 479.867L212.689 478.821C211.681 477.775 212.068 475.385 213.773 475.76C215.142 475.786 220.695 471.781 220.708 471.097C221.057 470.761 220.385 470.063 220.398 469.379C219.402 467.648 220.784 466.989 223.523 467.041C224.892 467.066 225.576 467.079 225.602 465.71C225.614 465.026 225.963 464.69 226.996 464.367C228.03 464.044 228.378 463.708 228.74 462.688C228.752 462.003 229.114 460.983 230.147 460.66C231.18 460.337 231.916 457.611 231.269 455.545C230.959 453.827 232.353 452.483 233.697 453.878C234.705 454.924 234.705 454.924 234.394 453.206C234.42 451.837 234.768 451.501 234.768 451.501C235.104 451.85 236.15 450.843 236.512 449.822C236.873 448.802 238.255 448.143 238.255 448.143C238.94 448.156 239.288 447.82 239.662 446.115C240.036 444.41 240.049 443.725 241.431 443.067C242.464 442.744 243.174 441.387 243.187 440.703C243.212 439.334 243.561 438.998 244.917 439.708C245.938 440.07 245.938 440.07 245.951 439.385C245.279 438.688 245.627 438.352 246.325 437.68C247.371 436.673 248.055 436.685 247.694 437.706C247.681 438.391 247.681 438.391 248.017 438.739C248.702 438.752 248.74 436.698 248.068 436.001C247.396 435.303 248.753 436.014 251.129 437.086C252.822 438.145 255.998 433.069 255.7 430.666C255.054 428.599 256.125 426.223 257.133 427.269C257.805 427.966 257.805 427.966 257.494 426.248C256.835 424.866 257.184 424.531 257.868 424.543C258.553 424.556 258.901 424.22 258.914 423.536C258.927 422.851 259.612 422.864 260.296 422.877C260.981 422.89 261.317 423.239 261.653 423.587C261.64 424.272 261.976 424.621 262.324 424.285C262.324 424.285 262.337 423.6 262.35 422.916C261.691 421.534 261.691 421.534 263.757 420.888C264.79 420.565 266.172 419.906 265.836 419.557C265.849 418.873 266.534 418.886 266.534 418.886C267.218 418.898 267.218 418.898 267.231 418.214C266.908 417.18 268.638 416.186 269.31 416.883C269.982 417.581 271.028 416.573 270.369 415.191C270.046 414.158 270.046 414.158 270.394 413.822C270.394 413.822 270.743 413.486 271.092 413.15C271.117 411.781 273.919 408.41 275.313 407.066C276.011 406.395 276.708 405.723 276.721 405.038C276.734 404.354 277.082 404.018 277.431 403.682C278.115 403.695 278.128 403.01 278.489 401.99C278.851 400.97 279.548 400.298 280.581 399.975C281.615 399.652 282.312 398.98 281.976 398.632C281.989 397.947 282.337 397.611 282.673 397.96C283.358 397.973 283.707 397.637 284.068 396.616C284.765 395.945 285.798 395.622 286.832 395.299C288.885 395.338 291.326 392.987 291.364 390.933C291.377 390.248 291.738 389.228 293.12 388.569C293.817 387.897 295.199 387.239 295.199 387.239C295.909 385.882 299.358 384.577 299.345 385.262C299.681 385.611 299.63 388.349 298.894 391.075C298.844 393.813 298.457 396.203 298.793 396.551C299.129 396.9 298.767 397.92 298.742 399.29C298.381 400.31 298.704 401.343 298.704 401.343C298.704 401.343 299.04 401.692 298.691 402.028C298.317 403.733 298.101 415.371 298.76 416.753C299.083 417.786 299.394 419.504 299.032 420.525C299.007 421.894 298.994 422.579 299.33 422.927C299.33 422.927 299.666 423.276 299.653 423.961C299.641 424.645 299.628 425.33 299.977 424.994C302.018 425.717 302.018 425.717 300.972 426.725C300.61 427.745 300.262 428.081 300.946 428.094C301.631 428.107 301.618 428.791 301.941 429.825C301.929 430.509 302.936 431.556 303.272 431.904C304.293 432.266 304.616 433.299 304.255 434.32C303.893 435.34 304.217 436.373 304.565 436.038C305.25 436.05 305.263 435.366 304.927 435.017C304.603 433.984 305.973 434.01 306.632 435.392C306.955 436.425 307.304 436.089 307.652 435.753C308.35 435.082 311.088 435.133 311.062 436.502C311.05 437.187 310.701 437.523 310.016 437.51C308.983 437.833 308.983 437.833 310.004 438.194C310.688 438.207 311.722 437.884 312.419 437.213C313.116 436.541 314.149 436.218 314.485 436.567C314.821 436.915 315.17 436.58 315.88 435.223C316.241 434.203 316.603 433.183 316.939 433.531C317.275 433.88 317.972 433.208 318.333 432.188C319.043 430.832 320.761 430.521 320.051 431.878C319.69 432.898 320.685 434.629 321.718 434.306C322.067 433.97 322.403 434.319 322.739 434.668C322.726 435.352 322.377 435.688 321.357 435.327C320.336 434.965 319.987 435.301 319.29 435.972C318.929 436.993 318.929 436.993 318.257 436.295C317.934 435.262 317.585 435.598 317.224 436.618C317.211 437.303 316.85 438.323 317.186 438.672C316.837 439.008 317.173 439.357 317.509 439.705C317.845 440.054 318.193 439.718 317.521 439.021C317.534 438.336 317.883 438 318.567 438.013C320.273 438.388 321.306 438.065 321.318 437.38C321.331 436.696 323.734 436.399 326.472 436.45C327.156 436.463 328.526 436.489 328.862 436.837C329.546 436.85 331.949 436.553 331.961 435.869C331.961 435.869 332.31 435.533 332.995 435.546C334.028 435.223 335.422 433.879 335.099 432.846C334.763 432.497 334.415 432.833 333.717 433.505C333.02 434.177 333.02 434.176 333.033 433.492C333.743 432.136 333.058 432.123 332.012 433.13C331.663 433.466 330.966 434.138 329.933 434.461C328.9 434.784 328.564 434.435 328.925 433.415C328.938 432.73 329.984 431.722 330.332 431.387C330.681 431.051 331.03 430.715 331.03 430.715C330.694 430.366 330.358 430.017 330.707 429.682C330.719 428.997 331.404 429.01 331.74 429.359C332.76 429.72 333.806 428.713 333.134 428.015C332.799 427.667 333.147 427.331 333.508 426.31C334.903 424.967 335.252 424.631 335.226 426C335.214 426.685 334.865 427.021 334.529 426.672C334.529 426.672 334.18 427.008 333.832 427.344C333.819 428.028 334.155 428.377 334.84 428.39C335.524 428.403 335.847 429.436 336.171 430.469L336.132 432.523L336.855 430.482C337.217 429.462 338.262 428.454 338.598 428.803C340.304 429.177 341.337 428.855 341.375 426.801C341.749 425.096 342.098 424.76 343.118 425.122C343.803 425.134 344.487 425.147 344.849 424.127C344.861 423.442 344.874 422.758 344.189 422.745C343.854 422.396 342.484 422.37 341.115 422.344C338.726 421.957 338.054 421.26 338.415 420.239C338.764 419.903 340.133 419.929 341.851 419.619C346.991 419.373 346.991 419.373 347.03 417.32C347.391 416.299 347.404 415.615 348.437 415.292C349.47 414.969 350.865 413.625 351.923 411.933C352.982 410.241 354.028 409.233 354.377 408.898C354.377 408.898 355.074 408.226 356.12 407.218C356.481 406.198 357.527 405.19 357.863 405.539C358.548 405.552 358.896 405.216 358.896 405.216C359.245 404.88 359.581 405.229 359.93 404.893C359.93 404.893 360.627 404.222 360.64 403.537C360.652 402.852 361.014 401.832 361.698 401.845C362.047 401.509 362.744 400.837 363.106 399.817C363.467 398.796 363.131 398.448 362.098 398.771L361.064 399.094L362.472 397.066C363.518 396.058 363.879 395.038 363.892 394.353C363.905 393.668 364.589 393.681 365.274 393.694C365.958 393.707 366.307 393.371 366.32 392.687C366.332 392.002 366.681 391.666 367.017 392.015C367.702 392.028 367.702 392.028 367.714 391.343C367.74 389.974 368.824 386.913 369.508 386.926C370.193 386.939 371.163 390.039 370.453 391.395C370.079 393.1 370.079 393.1 370.789 391.744C371.486 391.072 372.183 390.4 372.17 391.085C372.506 391.434 372.17 391.085 372.183 390.4C372.196 389.716 371.86 389.367 371.175 389.354C369.806 389.328 370.878 386.952 371.911 386.629C372.595 386.641 372.957 385.621 373.318 384.601C373.344 383.231 374.041 382.56 376.107 381.914C378.174 381.268 378.522 380.932 377.515 379.886C376.855 378.504 376.855 378.504 377.889 378.181C379.271 377.522 380.963 378.581 380.938 379.95C380.551 382.34 382.414 392.647 383.086 393.345C383.086 393.345 383.073 394.029 383.06 394.714C382.699 395.734 384.328 400.216 385.995 402.645C387.326 404.724 390.723 406.158 391.085 405.138C391.433 404.802 391.769 405.15 392.441 405.848C393.1 407.23 397.182 408.676 396.859 407.643C396.523 407.294 397.22 406.623 397.569 406.287C398.951 405.628 399.287 405.977 398.577 407.333C398.215 408.354 398.215 408.354 398.9 408.366C399.249 408.031 400.282 407.708 400.618 408.056C401.302 408.069 400.966 407.721 401.315 407.385C400.979 407.036 402.012 406.713 403.033 407.075C404.053 407.436 405.771 407.126 407.153 406.467C408.535 405.809 410.253 405.498 410.589 405.847C411.609 406.209 412.294 406.222 412.655 405.201C413.017 404.181 414.05 403.858 414.734 403.871C415.419 403.884 416.452 403.561 416.814 402.54C417.524 401.184 425.777 399.285 426.785 400.331C427.792 401.377 430.582 398.691 430.956 396.986C430.981 395.616 431.33 395.281 432.699 395.306C433.384 395.319 433.719 395.668 433.358 396.688C433.345 397.373 433.333 398.058 433.333 398.058C433.333 398.058 434.03 397.386 434.043 396.701C434.055 396.017 434.404 395.681 435.089 395.694C436.109 396.055 437.155 395.048 437.181 393.679C437.193 392.994 437.542 392.658 438.214 393.356C438.898 393.369 439.583 393.381 439.932 393.046C440.28 392.71 441.313 392.387 442.347 392.064C443.716 392.09 444.749 391.767 445.446 391.095C446.841 389.752 448.223 389.093 448.21 389.777C448.197 390.462 450.948 389.829 451.646 389.157C451.994 388.821 453.389 387.478 454.784 386.135C456.876 384.12 457.573 383.448 458.929 384.158C461.655 384.894 463.037 384.236 464.47 380.838C465.541 378.462 466.238 377.79 466.923 377.803C467.607 377.816 468.305 377.144 468.666 376.124C469.027 375.103 469.725 374.432 470.409 374.444C471.094 374.457 471.443 374.121 471.455 373.437C471.468 372.752 472.153 372.765 472.489 373.114C472.824 373.463 473.858 373.14 474.555 372.468C475.601 371.46 476.285 371.473 476.609 372.507C476.945 372.855 477.616 373.553 478.301 373.566C478.986 373.579 479.322 373.927 479.658 374.276C479.309 374.612 479.645 374.961 479.309 374.612C479.309 374.612 478.263 375.62 477.553 376.976C476.843 378.332 475.81 378.655 475.81 378.655C475.474 378.306 475.474 378.306 475.461 378.991C475.087 380.696 477.838 380.063 478.212 378.358C478.573 377.338 479.271 376.666 479.258 377.35C479.594 377.699 479.955 376.679 480.678 374.638C481.414 371.912 482.111 371.241 483.131 371.602C483.131 371.602 483.816 371.615 484.165 371.279C484.513 370.943 485.211 370.272 486.244 369.949C487.277 369.626 487.974 368.954 488.348 367.249C489.084 364.524 490.478 363.18 490.802 364.214C491.112 365.931 494.237 363.593 494.624 361.204C494.985 360.183 495.347 359.163 495.683 359.512C496.019 359.86 496.367 359.525 496.716 359.189C497.065 358.853 497.413 358.517 497.762 358.181C498.446 358.194 498.434 358.879 498.072 359.899C497.711 360.92 497.698 361.604 498.047 361.268C498.396 360.932 498.732 361.281 499.055 362.315C499.378 363.348 499.714 363.697 500.063 363.361C500.411 363.025 500.088 361.992 500.101 361.307C499.454 359.24 499.467 358.556 500.836 358.582C501.521 358.594 502.218 357.923 502.567 357.587C504.323 355.223 508.443 354.616 508.741 357.018C509.064 358.052 510.433 358.078 510.807 356.372C508.456 353.931 508.455 353.931 508.455 353.931ZM563.27 297.096C563.606 297.444 563.942 297.793 563.929 298.478C563.916 299.162 563.232 299.149 563.232 299.149C562.547 299.136 562.56 298.452 562.573 297.767C562.585 297.083 562.934 296.747 563.27 297.096ZM181.698 377.568C182.408 376.212 183.803 374.868 183.441 375.889C183.441 375.889 183.08 376.909 182.034 377.917C180.975 379.609 180.975 379.609 181.698 377.568ZM159.622 460.016C158.963 458.634 159.312 458.299 160.319 459.345C160.655 459.693 160.643 460.378 160.294 460.714C160.63 461.063 159.958 460.365 159.622 460.016ZM180.419 464.859C180.419 464.859 180.083 464.511 180.096 463.826C180.109 463.142 180.457 462.806 180.793 463.154C180.793 463.154 181.129 463.503 181.117 464.188C181.117 464.188 180.768 464.523 180.419 464.859ZM443.433 222.932C443.446 222.248 443.446 222.247 443.795 221.912C443.795 221.912 444.131 222.26 444.118 222.945C444.105 223.63 443.757 223.966 443.757 223.966C443.757 223.966 443.769 223.281 443.433 222.932ZM431.338 247.358C431.338 247.358 431.674 247.707 431.661 248.391C431.648 249.076 431.3 249.412 430.964 249.063C430.964 249.063 430.628 248.714 430.64 248.03C430.989 247.694 431.338 247.358 431.338 247.358ZM178.009 483.989C177.673 483.64 177.686 482.956 177.712 481.587C178.086 479.882 180.152 479.236 180.463 480.954C180.437 482.323 178.681 484.687 178.009 483.989ZM207.263 475.98C207.599 476.328 207.922 477.362 207.91 478.046C207.897 478.731 207.884 479.416 207.2 479.403C205.83 479.377 205.507 478.344 205.533 476.974C206.243 475.618 206.927 475.631 207.263 475.98ZM194.75 486.017C195.435 486.029 195.771 486.378 195.073 487.05C194.027 488.057 193.343 488.044 193.704 487.024C193.717 486.339 194.065 486.004 194.75 486.017ZM183.163 483.059C183.163 483.059 182.827 482.71 182.84 482.026C182.852 481.341 183.201 481.005 183.537 481.354C183.537 481.354 183.873 481.703 183.86 482.387C183.86 482.387 183.512 482.723 183.163 483.059ZM181.356 488.161C181.343 488.846 180.995 489.182 180.659 488.833C179.974 488.82 180.323 488.484 180.336 487.8C180.684 487.464 180.697 486.779 181.033 487.128C181.033 487.128 181.369 487.477 181.356 488.161ZM190.085 479.08C188.716 479.055 188.754 477.001 189.8 475.993C191.195 474.65 191.531 474.999 191.144 477.388C191.467 478.422 190.77 479.093 190.085 479.08ZM360.972 348.757C360.972 348.757 360.636 348.408 360.649 347.724C360.662 347.039 361.01 346.703 361.01 346.703C361.01 346.703 361.346 347.052 361.334 347.737C361.669 348.085 361.321 348.421 360.972 348.757ZM494.688 228.691C494.701 228.007 495.05 227.671 495.386 228.019C495.722 228.368 496.057 228.717 496.045 229.401C495.671 231.107 494.663 230.06 494.688 228.691ZM300.452 417.812C300.104 418.148 299.768 417.799 299.78 417.115C299.793 416.43 300.142 416.094 300.478 416.443C301.162 416.456 301.162 416.456 301.15 417.141C301.15 417.141 300.801 417.476 300.452 417.812ZM513.997 221.522C513.997 221.522 514.332 221.87 514.32 222.555C514.307 223.24 513.958 223.575 513.622 223.227C513.622 223.227 513.286 222.878 513.299 222.193C513.648 221.857 513.997 221.522 513.997 221.522ZM507.36 228.587C507.372 227.903 507.385 227.218 507.721 227.567C507.721 227.567 508.057 227.916 507.36 228.587C508.031 229.285 508.019 229.969 507.683 229.621C507.334 229.956 506.998 229.608 507.36 228.587ZM299.317 423.612C299.317 423.612 298.981 423.263 298.994 422.579C299.007 421.894 299.356 421.558 299.692 421.907C300.376 421.92 300.027 422.256 300.015 422.94L299.317 423.612ZM300.623 427.061C299.938 427.048 300.287 426.712 300.3 426.027C300.648 425.691 300.997 425.356 301.346 425.02C301.346 425.02 301.682 425.368 301.669 426.053C301.32 426.389 300.972 426.725 300.623 427.061ZM314.34 425.949C315.025 425.962 315.025 425.962 314.327 426.634C313.979 426.97 312.946 427.293 312.946 427.293C312.261 427.28 312.261 427.28 312.958 426.608C313.307 426.272 314.34 425.949 314.34 425.949ZM300.934 428.779C300.249 428.766 300.249 428.766 300.946 428.094C301.992 427.086 302.677 427.099 302.315 428.12C301.967 428.455 301.618 428.791 300.934 428.779ZM516.906 230.822C516.918 230.137 518.661 228.458 518.985 229.491C518.972 230.176 519.321 229.84 519.669 229.504C520.018 229.168 520.354 229.517 519.657 230.188C519.644 230.873 516.893 231.506 516.906 230.822ZM308.064 431.995C308.077 431.31 307.418 429.928 306.746 429.23C305.738 428.184 305.738 428.184 307.443 428.559C308.464 428.92 309.484 429.282 309.472 429.967C309.808 430.315 309.446 431.336 308.749 432.007C308.039 433.364 308.039 433.364 308.064 431.995ZM521.957 235.368C521.621 235.019 521.621 235.019 522.306 235.032C522.99 235.045 522.99 235.045 522.978 235.73C522.629 236.065 522.293 235.717 521.957 235.368ZM391.277 357.888L391.613 358.237C391.613 358.237 391.265 358.573 390.916 358.909C390.567 359.244 390.231 358.896 390.58 358.56C390.593 357.875 390.941 357.539 391.277 357.888ZM313.902 431.077C313.902 431.077 313.566 430.728 313.915 430.393C314.264 430.057 314.612 429.721 314.612 429.721C314.612 429.721 314.948 430.07 314.6 430.405C314.251 430.741 313.902 431.077 313.902 431.077ZM318.796 425.691C318.46 425.342 318.46 425.342 319.145 425.355C319.829 425.368 319.829 425.368 319.817 426.052C319.817 426.052 319.132 426.039 318.796 425.691ZM498.186 261.629C498.87 261.642 498.87 261.641 498.857 262.326C498.509 262.662 498.509 262.662 498.173 262.313C497.837 261.965 497.501 261.616 498.186 261.629ZM320.451 428.804C319.766 428.791 319.779 428.106 319.779 428.106C319.791 427.421 320.14 427.086 320.476 427.434C321.161 427.447 321.148 428.132 321.148 428.132C321.148 428.132 320.799 428.468 320.451 428.804ZM330.124 424.192C329.091 424.515 327.049 423.792 327.075 422.422C327.088 421.738 326.752 421.389 326.416 421.04C326.08 420.692 326.428 420.356 327.798 420.382C328.482 420.394 329.839 421.105 330.162 422.138C330.821 423.52 330.472 423.856 330.124 424.192ZM323.499 430.573C324.881 429.914 326.225 431.309 324.83 432.653C324.482 432.989 323.449 433.311 322.751 433.983C321.369 434.642 321.718 434.306 322.764 433.299C323.81 432.291 323.474 431.942 323.474 431.942C322.802 431.245 322.802 431.245 323.499 430.573ZM339.214 414.091C339.214 414.091 339.55 414.44 339.537 415.124C339.525 415.809 339.176 416.145 338.491 416.132C337.807 416.119 338.155 415.783 338.168 415.098C338.865 414.427 339.214 414.091 339.214 414.091ZM359.423 395.296C359.41 395.981 359.062 396.317 358.726 395.968C358.041 395.955 358.054 395.27 358.054 395.27C358.067 394.586 358.415 394.25 358.751 394.599C359.1 394.263 359.436 394.612 359.423 395.296ZM459.079 320.814C458.743 320.466 458.742 320.466 459.427 320.479C460.112 320.492 460.112 320.492 460.099 321.176C460.099 321.176 459.414 321.163 459.079 320.814ZM511.262 276.599C511.262 276.599 510.926 276.25 511.274 275.914C511.623 275.578 511.636 274.894 511.972 275.242C511.972 275.242 512.308 275.591 511.959 275.927C511.946 276.612 511.597 276.947 511.262 276.599ZM561.834 245.364C561.498 245.015 561.498 245.015 562.182 245.028C562.867 245.041 562.867 245.041 562.854 245.726C562.518 245.377 562.17 245.713 561.834 245.364ZM527.824 288.21C527.165 286.828 527.178 286.144 527.514 286.492C527.178 286.144 527.849 286.841 527.824 288.21C528.147 289.243 528.147 289.243 527.824 288.21ZM524.47 302.871C524.134 302.522 524.134 302.522 524.819 302.535C525.503 302.548 525.503 302.548 525.491 303.232C525.491 303.232 524.806 303.22 524.47 302.871ZM551.118 306.112C551.105 306.796 551.105 306.797 550.757 307.132C550.757 307.132 550.421 306.784 550.433 306.099C550.446 305.414 550.795 305.079 550.795 305.079C550.446 305.414 550.782 305.763 551.118 306.112ZM555.327 300.713C554.979 301.048 554.63 301.384 554.281 301.72C553.597 301.707 553.945 301.371 554.643 300.7C555.353 299.343 555.689 299.692 555.327 300.713ZM501.014 348.997C501.027 348.313 501.027 348.313 501.376 347.977C501.376 347.977 501.711 348.326 501.699 349.01C501.686 349.695 501.337 350.031 501.337 350.031C501.686 349.695 501.35 349.346 501.014 348.997Z" fill="#D2AA86"/>
</svg>
